<mxfile host="app.diagrams.net" modified="2023-05-09T03:22:58.615Z" agent="Mozilla/5.0 (Windows NT 10.0; Win64; x64) AppleWebKit/537.36 (KHTML, like Gecko) Chrome/113.0.0.0 Safari/537.36" etag="wnBmVU7Q3YgBQAeCJlZg" version="21.1.5" type="github">
  <diagram name="第 1 页" id="zlYn8LZgkOGk7mUqmKh2">
    <mxGraphModel dx="1290" dy="541" grid="0" gridSize="10" guides="1" tooltips="1" connect="1" arrows="1" fold="1" page="1" pageScale="1" pageWidth="3300" pageHeight="4681" math="0" shadow="0">
      <root>
        <mxCell id="0" />
        <mxCell id="1" parent="0" />
        <mxCell id="tJDTqlyTMZX3R0a3VIU8-6" value="" style="endArrow=classic;html=1;rounded=0;" edge="1" parent="1" target="tJDTqlyTMZX3R0a3VIU8-4">
          <mxGeometry width="50" height="50" relative="1" as="geometry">
            <mxPoint x="280" y="480" as="sourcePoint" />
            <mxPoint x="280" y="40" as="targetPoint" />
          </mxGeometry>
        </mxCell>
        <mxCell id="tJDTqlyTMZX3R0a3VIU8-13" value="" style="ellipse;whiteSpace=wrap;html=1;aspect=fixed;fillColor=#54CCFF;" vertex="1" parent="1">
          <mxGeometry x="430" y="310" width="20" height="20" as="geometry" />
        </mxCell>
        <mxCell id="tJDTqlyTMZX3R0a3VIU8-20" value="" style="endArrow=classic;html=1;rounded=0;" edge="1" parent="1" source="tJDTqlyTMZX3R0a3VIU8-4">
          <mxGeometry width="50" height="50" relative="1" as="geometry">
            <mxPoint x="280" y="470" as="sourcePoint" />
            <mxPoint x="280" y="101" as="targetPoint" />
          </mxGeometry>
        </mxCell>
        <mxCell id="tJDTqlyTMZX3R0a3VIU8-16" value="" style="ellipse;whiteSpace=wrap;html=1;aspect=fixed;fillColor=#54CCFF;" vertex="1" parent="1">
          <mxGeometry x="270" y="150" width="20" height="20" as="geometry" />
        </mxCell>
        <mxCell id="tJDTqlyTMZX3R0a3VIU8-23" value="" style="endArrow=classic;html=1;rounded=0;" edge="1" parent="1">
          <mxGeometry width="50" height="50" relative="1" as="geometry">
            <mxPoint x="280" y="480" as="sourcePoint" />
            <mxPoint x="676" y="482" as="targetPoint" />
          </mxGeometry>
        </mxCell>
        <mxCell id="tJDTqlyTMZX3R0a3VIU8-15" value="" style="ellipse;whiteSpace=wrap;html=1;aspect=fixed;fillColor=#54CCFF;" vertex="1" parent="1">
          <mxGeometry x="430" y="470" width="20" height="20" as="geometry" />
        </mxCell>
        <mxCell id="tJDTqlyTMZX3R0a3VIU8-14" value="" style="ellipse;whiteSpace=wrap;html=1;aspect=fixed;fillColor=#54CCFF;" vertex="1" parent="1">
          <mxGeometry x="590" y="470" width="20" height="20" as="geometry" />
        </mxCell>
        <mxCell id="tJDTqlyTMZX3R0a3VIU8-12" value="" style="ellipse;whiteSpace=wrap;html=1;aspect=fixed;fillColor=#54CCFF;" vertex="1" parent="1">
          <mxGeometry x="270" y="310" width="20" height="20" as="geometry" />
        </mxCell>
        <mxCell id="tJDTqlyTMZX3R0a3VIU8-4" value="" style="ellipse;whiteSpace=wrap;html=1;aspect=fixed;fillColor=#FF6421;" vertex="1" parent="1">
          <mxGeometry x="270" y="470" width="20" height="20" as="geometry" />
        </mxCell>
        <mxCell id="tJDTqlyTMZX3R0a3VIU8-26" value="(0, 0, 0)" style="text;html=1;strokeColor=none;fillColor=none;align=center;verticalAlign=middle;whiteSpace=wrap;rounded=0;" vertex="1" parent="1">
          <mxGeometry x="210" y="480" width="70" height="30" as="geometry" />
        </mxCell>
        <mxCell id="tJDTqlyTMZX3R0a3VIU8-29" value="(0, 600, 0)" style="text;html=1;strokeColor=none;fillColor=none;align=center;verticalAlign=middle;whiteSpace=wrap;rounded=0;" vertex="1" parent="1">
          <mxGeometry x="200" y="145" width="70" height="30" as="geometry" />
        </mxCell>
        <mxCell id="tJDTqlyTMZX3R0a3VIU8-30" value="(0, 300, 0)" style="text;html=1;strokeColor=none;fillColor=none;align=center;verticalAlign=middle;whiteSpace=wrap;rounded=0;" vertex="1" parent="1">
          <mxGeometry x="200" y="305" width="70" height="30" as="geometry" />
        </mxCell>
        <mxCell id="tJDTqlyTMZX3R0a3VIU8-31" value="(300, 300, 0)" style="text;html=1;strokeColor=none;fillColor=none;align=center;verticalAlign=middle;whiteSpace=wrap;rounded=0;" vertex="1" parent="1">
          <mxGeometry x="450" y="275" width="80" height="30" as="geometry" />
        </mxCell>
        <mxCell id="tJDTqlyTMZX3R0a3VIU8-32" value="(300, 0, 0)" style="text;html=1;strokeColor=none;fillColor=none;align=center;verticalAlign=middle;whiteSpace=wrap;rounded=0;" vertex="1" parent="1">
          <mxGeometry x="400" y="490" width="80" height="30" as="geometry" />
        </mxCell>
        <mxCell id="tJDTqlyTMZX3R0a3VIU8-33" value="(600, 0, 0)" style="text;html=1;strokeColor=none;fillColor=none;align=center;verticalAlign=middle;whiteSpace=wrap;rounded=0;" vertex="1" parent="1">
          <mxGeometry x="560" y="490" width="80" height="30" as="geometry" />
        </mxCell>
        <mxCell id="tJDTqlyTMZX3R0a3VIU8-34" value="主节点" style="text;html=1;strokeColor=none;fillColor=none;align=center;verticalAlign=middle;whiteSpace=wrap;rounded=0;" vertex="1" parent="1">
          <mxGeometry x="215" y="465" width="60" height="30" as="geometry" />
        </mxCell>
      </root>
    </mxGraphModel>
  </diagram>
</mxfile>
